<svg width="232" height="241" viewBox="0 0 232 241" fill="none" xmlns="http://www.w3.org/2000/svg">
<g clip-path="url(#clip0_3_293)">
<path d="M218.098 67.9253L152.686 67.9253C151.443 67.9253 150.251 67.4745 149.372 66.672C148.493 65.8695 147.999 64.7811 147.999 63.6462V20.1792C147.999 19.0448 148.492 17.9569 149.371 17.1548C150.25 16.3527 151.442 15.9021 152.684 15.9021L218.1 15.9021C219.342 15.9021 220.534 16.3527 221.413 17.1548C222.292 17.9569 222.785 19.0448 222.785 20.1792V63.6462C222.785 64.7811 222.292 65.8695 221.412 66.672C220.533 67.4745 219.341 67.9253 218.098 67.9253Z" fill="white"/>
<path d="M147.803 63.6458V20.1788C147.803 18.997 148.317 17.8637 149.233 17.028C150.148 16.1924 151.39 15.7229 152.684 15.7229H218.1C219.394 15.7229 220.636 16.1924 221.552 17.028C222.467 17.8637 222.981 18.997 222.981 20.1788V63.6458C222.981 64.2312 222.855 64.8109 222.61 65.3517C222.364 65.8926 222.004 66.384 221.551 66.798C221.097 67.2119 220.559 67.5403 219.967 67.7643C219.374 67.9884 218.739 68.1037 218.098 68.1037H152.687C152.045 68.1037 151.41 67.9884 150.818 67.7643C150.225 67.5403 149.687 67.2119 149.233 66.798C148.78 66.384 148.42 65.8926 148.175 65.3517C147.929 64.8109 147.803 64.2312 147.803 63.6458ZM152.684 16.0805C151.494 16.0808 150.352 16.5127 149.51 17.2813C148.669 18.0498 148.196 19.0921 148.196 20.1788V63.6458C148.196 64.7332 148.669 65.7762 149.511 66.5451C150.354 67.3141 151.496 67.7461 152.688 67.7461H218.098C219.289 67.7461 220.432 67.3141 221.274 66.5451C222.116 65.7762 222.59 64.7332 222.59 63.6458V20.1788C222.59 19.0919 222.117 18.0494 221.275 17.2808C220.433 16.5123 219.291 16.0805 218.1 16.0805H152.684Z" fill="#292A2E"/>
<path d="M147.999 20.1782V23.8H222.785V20.1782C222.785 19.0439 222.291 17.956 221.412 17.1539C220.534 16.3517 219.342 15.9011 218.099 15.9011H152.684C152.069 15.9011 151.46 16.0118 150.891 16.2267C150.323 16.4417 149.806 16.7567 149.371 17.1539C148.936 17.5511 148.591 18.0226 148.356 18.5415C148.12 19.0604 147.999 19.6166 147.999 20.1782Z" fill="#292A2E"/>
<path d="M173.54 29.6545H170.011C169.969 29.6545 169.929 29.6394 169.9 29.6126C169.87 29.5858 169.854 29.5494 169.854 29.5114C169.854 29.4735 169.87 29.4371 169.9 29.4103C169.929 29.3835 169.969 29.3684 170.011 29.3684H173.54C173.581 29.3684 173.621 29.3835 173.65 29.4103C173.68 29.4371 173.696 29.4735 173.696 29.5114C173.696 29.5494 173.68 29.5858 173.65 29.6126C173.621 29.6394 173.581 29.6545 173.54 29.6545Z" fill="#292A2E"/>
<path d="M167.466 29.6545H166.13C166.089 29.6545 166.049 29.6394 166.02 29.6126C165.99 29.5858 165.974 29.5494 165.974 29.5114C165.974 29.4735 165.99 29.4371 166.02 29.4103C166.049 29.3835 166.089 29.3684 166.13 29.3684H167.466C167.507 29.3684 167.547 29.3835 167.576 29.4103C167.606 29.4371 167.622 29.4735 167.622 29.5114C167.622 29.5494 167.606 29.5858 167.576 29.6126C167.547 29.6394 167.507 29.6545 167.466 29.6545Z" fill="#367CFF"/>
<path d="M167.466 32.2348H166.13C166.089 32.2348 166.049 32.2197 166.02 32.1929C165.99 32.1661 165.974 32.1297 165.974 32.0918C165.974 32.0538 165.99 32.0174 166.02 31.9906C166.049 31.9638 166.089 31.9487 166.13 31.9487H167.466C167.507 31.9487 167.547 31.9638 167.576 31.9906C167.606 32.0174 167.622 32.0538 167.622 32.0918C167.622 32.1297 167.606 32.1661 167.576 32.1929C167.547 32.2197 167.507 32.2348 167.466 32.2348Z" fill="#367CFF"/>
<path d="M167.466 34.8149H166.13C166.089 34.8149 166.049 34.7998 166.02 34.773C165.99 34.7462 165.974 34.7098 165.974 34.6718C165.974 34.6339 165.99 34.5975 166.02 34.5707C166.049 34.5439 166.089 34.5288 166.13 34.5288H167.466C167.507 34.5288 167.547 34.5439 167.576 34.5707C167.606 34.5975 167.622 34.6339 167.622 34.6718C167.622 34.7098 167.606 34.7462 167.576 34.773C167.547 34.7998 167.507 34.8149 167.466 34.8149Z" fill="#367CFF"/>
<path d="M167.466 37.3952H166.13C166.089 37.3952 166.049 37.3801 166.02 37.3533C165.99 37.3265 165.974 37.2901 165.974 37.2522C165.974 37.2142 165.99 37.1778 166.02 37.151C166.049 37.1242 166.089 37.1091 166.13 37.1091H167.466C167.507 37.1091 167.547 37.1242 167.576 37.151C167.606 37.1778 167.622 37.2142 167.622 37.2522C167.622 37.2901 167.606 37.3265 167.576 37.3533C167.547 37.3801 167.507 37.3952 167.466 37.3952Z" fill="#367CFF"/>
<path d="M167.466 39.9755H166.13C166.089 39.9755 166.049 39.9604 166.02 39.9336C165.99 39.9068 165.974 39.8704 165.974 39.8325C165.974 39.7945 165.99 39.7582 166.02 39.7313C166.049 39.7045 166.089 39.6895 166.13 39.6895H167.466C167.507 39.6895 167.547 39.7045 167.576 39.7313C167.606 39.7582 167.622 39.7945 167.622 39.8325C167.622 39.8704 167.606 39.9068 167.576 39.9336C167.547 39.9604 167.507 39.9755 167.466 39.9755Z" fill="#367CFF"/>
<path d="M167.466 42.5556H166.13C166.089 42.5556 166.049 42.5405 166.02 42.5137C165.99 42.4869 165.974 42.4505 165.974 42.4126C165.974 42.3746 165.99 42.3382 166.02 42.3114C166.049 42.2846 166.089 42.2695 166.13 42.2695H167.466C167.507 42.2695 167.547 42.2846 167.576 42.3114C167.606 42.3382 167.622 42.3746 167.622 42.4126C167.622 42.4505 167.606 42.4869 167.576 42.5137C167.547 42.5405 167.507 42.5556 167.466 42.5556Z" fill="#367CFF"/>
<path d="M167.466 45.1359H166.13C166.089 45.1359 166.049 45.1208 166.02 45.094C165.99 45.0672 165.974 45.0308 165.974 44.9929C165.974 44.9549 165.99 44.9186 166.02 44.8917C166.049 44.8649 166.089 44.8499 166.13 44.8499H167.466C167.507 44.8499 167.547 44.8649 167.576 44.8917C167.606 44.9186 167.622 44.9549 167.622 44.9929C167.622 45.0308 167.606 45.0672 167.576 45.094C167.547 45.1208 167.507 45.1359 167.466 45.1359Z" fill="#367CFF"/>
<path d="M167.466 47.7162H166.13C166.089 47.7162 166.049 47.7012 166.02 47.6743C165.99 47.6475 165.974 47.6111 165.974 47.5732C165.974 47.5353 165.99 47.4989 166.02 47.4721C166.049 47.4452 166.089 47.4302 166.13 47.4302H167.466C167.507 47.4302 167.547 47.4452 167.576 47.4721C167.606 47.4989 167.622 47.5353 167.622 47.5732C167.622 47.6111 167.606 47.6475 167.576 47.6743C167.547 47.7012 167.507 47.7162 167.466 47.7162Z" fill="#367CFF"/>
<path d="M167.466 50.2963H166.13C166.089 50.2963 166.049 50.2812 166.02 50.2544C165.99 50.2276 165.974 50.1912 165.974 50.1533C165.974 50.1153 165.99 50.079 166.02 50.0521C166.049 50.0253 166.089 50.0103 166.13 50.0103H167.466C167.507 50.0103 167.547 50.0253 167.576 50.0521C167.606 50.079 167.622 50.1153 167.622 50.1533C167.622 50.1912 167.606 50.2276 167.576 50.2544C167.547 50.2812 167.507 50.2963 167.466 50.2963Z" fill="#367CFF"/>
<path d="M167.466 52.8766H166.13C166.089 52.8766 166.049 52.8616 166.02 52.8347C165.99 52.8079 165.974 52.7715 165.974 52.7336C165.974 52.6957 165.99 52.6593 166.02 52.6325C166.049 52.6056 166.089 52.5906 166.13 52.5906H167.466C167.507 52.5906 167.547 52.6056 167.576 52.6325C167.606 52.6593 167.622 52.6957 167.622 52.7336C167.622 52.7715 167.606 52.8079 167.576 52.8347C167.547 52.8616 167.507 52.8766 167.466 52.8766Z" fill="#367CFF"/>
<path d="M167.466 55.4567H166.13C166.089 55.4567 166.049 55.4416 166.02 55.4148C165.99 55.388 165.974 55.3516 165.974 55.3137C165.974 55.2757 165.99 55.2394 166.02 55.2125C166.049 55.1857 166.089 55.1707 166.13 55.1707H167.466C167.507 55.1707 167.547 55.1857 167.576 55.2125C167.606 55.2394 167.622 55.2757 167.622 55.3137C167.622 55.3516 167.606 55.388 167.576 55.4148C167.547 55.4416 167.507 55.4567 167.466 55.4567Z" fill="#367CFF"/>
<path d="M167.466 58.037H166.13C166.089 58.037 166.049 58.022 166.02 57.9951C165.99 57.9683 165.974 57.9319 165.974 57.894C165.974 57.8561 165.99 57.8197 166.02 57.7929C166.049 57.766 166.089 57.751 166.13 57.751H167.466C167.507 57.751 167.547 57.766 167.576 57.7929C167.606 57.8197 167.622 57.8561 167.622 57.894C167.622 57.9319 167.606 57.9683 167.576 57.9951C167.547 58.022 167.507 58.037 167.466 58.037Z" fill="#367CFF"/>
<path d="M167.466 60.6174H166.13C166.089 60.6174 166.049 60.6023 166.02 60.5755C165.99 60.5486 165.974 60.5123 165.974 60.4743C165.974 60.4364 165.99 60.4 166.02 60.3732C166.049 60.3464 166.089 60.3313 166.13 60.3313H167.466C167.507 60.3313 167.547 60.3464 167.576 60.3732C167.606 60.4 167.622 60.4364 167.622 60.4743C167.622 60.5123 167.606 60.5486 167.576 60.5755C167.547 60.6023 167.507 60.6174 167.466 60.6174Z" fill="#367CFF"/>
<path d="M167.466 63.1979H166.13C166.089 63.1979 166.049 63.1829 166.02 63.156C165.99 63.1292 165.974 63.0928 165.974 63.0549C165.974 63.017 165.99 62.9806 166.02 62.9538C166.049 62.9269 166.089 62.9119 166.13 62.9119H167.466C167.507 62.9119 167.547 62.9269 167.576 62.9538C167.606 62.9806 167.622 63.017 167.622 63.0549C167.622 63.0928 167.606 63.1292 167.576 63.156C167.547 63.1829 167.507 63.1979 167.466 63.1979Z" fill="#367CFF"/>
<path d="M176.36 32.2348H173.144C173.103 32.2348 173.063 32.2197 173.034 32.1929C173.004 32.1661 172.988 32.1297 172.988 32.0918C172.988 32.0538 173.004 32.0174 173.034 31.9906C173.063 31.9638 173.103 31.9487 173.144 31.9487H176.36C176.401 31.9487 176.441 31.9638 176.471 31.9906C176.5 32.0174 176.517 32.0538 176.517 32.0918C176.517 32.1297 176.5 32.1661 176.471 32.1929C176.441 32.2197 176.401 32.2348 176.36 32.2348Z" fill="#292A2E"/>
<path d="M173.54 47.716H170.011C169.969 47.716 169.929 47.7009 169.9 47.6741C169.87 47.6473 169.854 47.6109 169.854 47.573C169.854 47.535 169.87 47.4986 169.9 47.4718C169.929 47.445 169.969 47.4299 170.011 47.4299H173.54C173.581 47.4299 173.621 47.445 173.65 47.4718C173.68 47.4986 173.696 47.535 173.696 47.573C173.696 47.6109 173.68 47.6473 173.65 47.6741C173.621 47.7009 173.581 47.716 173.54 47.716Z" fill="#292A2E"/>
<path d="M176.36 50.2963H173.144C173.103 50.2963 173.063 50.2812 173.034 50.2544C173.004 50.2276 172.988 50.1912 172.988 50.1533C172.988 50.1153 173.004 50.079 173.034 50.0521C173.063 50.0253 173.103 50.0103 173.144 50.0103H176.36C176.401 50.0103 176.441 50.0253 176.471 50.0521C176.5 50.079 176.517 50.1153 176.517 50.1533C176.517 50.1912 176.5 50.2276 176.471 50.2544C176.441 50.2812 176.401 50.2963 176.36 50.2963Z" fill="#292A2E"/>
<path d="M194.536 34.8149H175.338C175.296 34.8149 175.257 34.7998 175.227 34.773C175.198 34.7462 175.181 34.7098 175.181 34.6718C175.181 34.6339 175.198 34.5975 175.227 34.5707C175.257 34.5439 175.296 34.5288 175.338 34.5288H194.536C194.577 34.5288 194.617 34.5439 194.647 34.5707C194.676 34.5975 194.692 34.6339 194.692 34.6718C194.692 34.7098 194.676 34.7462 194.647 34.773C194.617 34.7998 194.577 34.8149 194.536 34.8149Z" fill="#292A2E"/>
<path d="M211.485 34.8149H197.929C197.887 34.8149 197.847 34.7998 197.818 34.773C197.788 34.7462 197.772 34.7098 197.772 34.6718C197.772 34.6339 197.788 34.5975 197.818 34.5707C197.847 34.5439 197.887 34.5288 197.929 34.5288H211.485C211.527 34.5288 211.567 34.5439 211.596 34.5707C211.626 34.5975 211.642 34.6339 211.642 34.6718C211.642 34.7098 211.626 34.7462 211.596 34.773C211.567 34.7998 211.527 34.8149 211.485 34.8149Z" fill="#0CBC8B"/>
<path d="M218.761 34.8149H214.605C214.564 34.8149 214.524 34.7998 214.495 34.773C214.465 34.7462 214.449 34.7098 214.449 34.6718C214.449 34.6339 214.465 34.5975 214.495 34.5707C214.524 34.5439 214.564 34.5288 214.605 34.5288H218.761C218.802 34.5288 218.842 34.5439 218.871 34.5707C218.901 34.5975 218.917 34.6339 218.917 34.6718C218.917 34.7098 218.901 34.7462 218.871 34.773C218.842 34.7998 218.802 34.8149 218.761 34.8149Z" fill="#292A2E"/>
<path d="M203.937 39.9755H175.338C175.296 39.9755 175.257 39.9604 175.227 39.9336C175.198 39.9068 175.181 39.8704 175.181 39.8325C175.181 39.7945 175.198 39.7582 175.227 39.7313C175.257 39.7045 175.296 39.6895 175.338 39.6895H203.937C203.979 39.6895 204.018 39.7045 204.048 39.7313C204.077 39.7582 204.094 39.7945 204.094 39.8325C204.094 39.8704 204.077 39.9068 204.048 39.9336C204.018 39.9604 203.979 39.9755 203.937 39.9755Z" fill="#292A2E"/>
<path d="M211.485 39.9755H207.33C207.288 39.9755 207.249 39.9604 207.219 39.9336C207.19 39.9068 207.173 39.8704 207.173 39.8325C207.173 39.7945 207.19 39.7582 207.219 39.7313C207.249 39.7045 207.288 39.6895 207.33 39.6895H211.485C211.527 39.6895 211.567 39.7045 211.596 39.7313C211.625 39.7582 211.642 39.7945 211.642 39.8325C211.642 39.8704 211.625 39.9068 211.596 39.9336C211.567 39.9604 211.527 39.9755 211.485 39.9755Z" fill="#367CFF"/>
<path d="M178.867 37.3952H175.338C175.296 37.3952 175.257 37.3801 175.227 37.3533C175.198 37.3265 175.181 37.2901 175.181 37.2522C175.181 37.2142 175.198 37.1778 175.227 37.151C175.257 37.1242 175.296 37.1091 175.338 37.1091H178.867C178.908 37.1091 178.948 37.1242 178.978 37.151C179.007 37.1778 179.024 37.2142 179.024 37.2522C179.024 37.2901 179.007 37.3265 178.978 37.3533C178.948 37.3801 178.908 37.3952 178.867 37.3952Z" fill="#0CBC8B"/>
<path d="M202.084 37.3952H182.26C182.218 37.3952 182.178 37.3801 182.149 37.3533C182.12 37.3265 182.103 37.2901 182.103 37.2522C182.103 37.2142 182.12 37.1778 182.149 37.151C182.178 37.1242 182.218 37.1091 182.26 37.1091H202.084C202.126 37.1091 202.165 37.1242 202.195 37.151C202.224 37.1778 202.241 37.2142 202.241 37.2522C202.241 37.2901 202.224 37.3265 202.195 37.3533C202.165 37.3801 202.126 37.3952 202.084 37.3952Z" fill="#367CFF"/>
<path d="M218.788 37.3952H205.857C205.816 37.3952 205.776 37.3801 205.746 37.3533C205.717 37.3265 205.7 37.2901 205.7 37.2522C205.7 37.2142 205.717 37.1778 205.746 37.151C205.776 37.1242 205.816 37.1091 205.857 37.1091H218.787C218.829 37.1091 218.869 37.1242 218.898 37.151C218.928 37.1778 218.944 37.2142 218.944 37.2522C218.944 37.2901 218.928 37.3265 218.898 37.3533C218.869 37.3801 218.829 37.3952 218.787 37.3952H218.788Z" fill="#292A2E"/>
<path d="M194.536 42.5556H175.338C175.296 42.5556 175.257 42.5405 175.227 42.5137C175.198 42.4869 175.181 42.4505 175.181 42.4126C175.181 42.3746 175.198 42.3382 175.227 42.3114C175.257 42.2846 175.296 42.2695 175.338 42.2695H194.536C194.577 42.2695 194.617 42.2846 194.647 42.3114C194.676 42.3382 194.692 42.3746 194.692 42.4126C194.692 42.4505 194.676 42.4869 194.647 42.5137C194.617 42.5405 194.577 42.5556 194.536 42.5556Z" fill="#292A2E"/>
<path d="M205.218 42.5556H197.929C197.887 42.5556 197.847 42.5405 197.818 42.5137C197.788 42.4869 197.772 42.4505 197.772 42.4126C197.772 42.3746 197.788 42.3382 197.818 42.3114C197.847 42.2846 197.887 42.2695 197.929 42.2695H205.218C205.259 42.2695 205.299 42.2846 205.329 42.3114C205.358 42.3382 205.374 42.3746 205.374 42.4126C205.374 42.4505 205.358 42.4869 205.329 42.5137C205.299 42.5405 205.259 42.5556 205.218 42.5556Z" fill="#0CBC8B"/>
<path d="M218.761 42.5556H208.338C208.296 42.5556 208.256 42.5405 208.227 42.5137C208.198 42.4869 208.181 42.4505 208.181 42.4126C208.181 42.3746 208.198 42.3382 208.227 42.3114C208.256 42.2846 208.296 42.2695 208.338 42.2695H218.761C218.802 42.2695 218.842 42.2846 218.871 42.3114C218.901 42.3382 218.917 42.3746 218.917 42.4126C218.917 42.4505 218.901 42.4869 218.871 42.5137C218.842 42.5405 218.802 42.5556 218.761 42.5556Z" fill="#292A2E"/>
<path d="M178.867 45.1359H175.338C175.296 45.1359 175.257 45.1208 175.227 45.094C175.198 45.0672 175.181 45.0308 175.181 44.9929C175.181 44.9549 175.198 44.9186 175.227 44.8917C175.257 44.8649 175.296 44.8499 175.338 44.8499H178.867C178.908 44.8499 178.948 44.8649 178.978 44.8917C179.007 44.9186 179.024 44.9549 179.024 44.9929C179.024 45.0308 179.007 45.0672 178.978 45.094C178.948 45.1208 178.908 45.1359 178.867 45.1359Z" fill="#367CFF"/>
<path d="M202.084 45.1359H182.26C182.218 45.1359 182.178 45.1208 182.149 45.094C182.12 45.0672 182.103 45.0308 182.103 44.9929C182.103 44.9549 182.12 44.9186 182.149 44.8917C182.178 44.8649 182.218 44.8499 182.26 44.8499H202.084C202.126 44.8499 202.165 44.8649 202.195 44.8917C202.224 44.9186 202.241 44.9549 202.241 44.9929C202.241 45.0308 202.224 45.0672 202.195 45.094C202.165 45.1208 202.126 45.1359 202.084 45.1359Z" fill="#0CBC8B"/>
<path d="M193.909 55.4567H174.711C174.67 55.4567 174.63 55.4416 174.6 55.4148C174.571 55.388 174.555 55.3516 174.555 55.3137C174.555 55.2757 174.571 55.2394 174.6 55.2125C174.63 55.1857 174.67 55.1707 174.711 55.1707H193.909C193.951 55.1707 193.99 55.1857 194.02 55.2125C194.049 55.2394 194.066 55.2757 194.066 55.3137C194.066 55.3516 194.049 55.388 194.02 55.4148C193.99 55.4416 193.951 55.4567 193.909 55.4567Z" fill="#292A2E"/>
<path d="M210.859 55.4567H197.302C197.26 55.4567 197.221 55.4416 197.191 55.4148C197.162 55.388 197.145 55.3516 197.145 55.3137C197.145 55.2757 197.162 55.2394 197.191 55.2125C197.221 55.1857 197.26 55.1707 197.302 55.1707H210.859C210.9 55.1707 210.94 55.1857 210.969 55.2125C210.999 55.2394 211.015 55.2757 211.015 55.3137C211.015 55.3516 210.999 55.388 210.969 55.4148C210.94 55.4416 210.9 55.4567 210.859 55.4567Z" fill="#367CFF"/>
<path d="M184.508 52.8766H174.711C174.67 52.8766 174.63 52.8616 174.6 52.8347C174.571 52.8079 174.555 52.7715 174.555 52.7336C174.555 52.6957 174.571 52.6593 174.6 52.6325C174.63 52.6056 174.67 52.5906 174.711 52.5906H184.508C184.549 52.5906 184.589 52.6056 184.619 52.6325C184.648 52.6593 184.664 52.6957 184.664 52.7336C184.664 52.7715 184.648 52.8079 184.619 52.8347C184.589 52.8616 184.549 52.8766 184.508 52.8766Z" fill="#0CBC8B"/>
<path d="M201.457 52.8766H187.901C187.859 52.8766 187.819 52.8616 187.79 52.8347C187.76 52.8079 187.744 52.7715 187.744 52.7336C187.744 52.6957 187.76 52.6593 187.79 52.6325C187.819 52.6056 187.859 52.5906 187.901 52.5906H201.457C201.499 52.5906 201.539 52.6056 201.568 52.6325C201.597 52.6593 201.614 52.6957 201.614 52.7336C201.614 52.7715 201.597 52.8079 201.568 52.8347C201.539 52.8616 201.499 52.8766 201.457 52.8766Z" fill="#367CFF"/>
<path d="M218.161 52.8766H205.23C205.189 52.8766 205.149 52.8616 205.12 52.8347C205.09 52.8079 205.074 52.7715 205.074 52.7336C205.074 52.6957 205.09 52.6593 205.12 52.6325C205.149 52.6056 205.189 52.5906 205.23 52.5906H218.161C218.202 52.5906 218.242 52.6056 218.271 52.6325C218.301 52.6593 218.317 52.6957 218.317 52.7336C218.317 52.7715 218.301 52.8079 218.271 52.8347C218.242 52.8616 218.202 52.8766 218.161 52.8766H218.161Z" fill="#292A2E"/>
<path d="M203.31 60.6176H174.711C174.67 60.6176 174.63 60.6025 174.6 60.5757C174.571 60.5489 174.555 60.5125 174.555 60.4746C174.555 60.4366 174.571 60.4003 174.6 60.3734C174.63 60.3466 174.67 60.3315 174.711 60.3315H203.31C203.352 60.3315 203.392 60.3466 203.421 60.3734C203.45 60.4003 203.467 60.4366 203.467 60.4746C203.467 60.5125 203.45 60.5489 203.421 60.5757C203.392 60.6025 203.352 60.6176 203.31 60.6176Z" fill="#367CFF"/>
<path d="M210.859 60.6176H206.703C206.662 60.6176 206.622 60.6025 206.592 60.5757C206.563 60.5489 206.547 60.5125 206.547 60.4746C206.547 60.4366 206.563 60.4003 206.592 60.3734C206.622 60.3466 206.662 60.3315 206.703 60.3315H210.859C210.9 60.3315 210.94 60.3466 210.969 60.3734C210.999 60.4003 211.015 60.4366 211.015 60.4746C211.015 60.5125 210.999 60.5489 210.969 60.5757C210.94 60.6025 210.9 60.6176 210.859 60.6176Z" fill="#292A2E"/>
<path d="M178.24 58.0373H174.711C174.67 58.0373 174.63 58.0222 174.6 57.9954C174.571 57.9686 174.555 57.9322 174.555 57.8942C174.555 57.8563 174.571 57.8199 174.6 57.7931C174.63 57.7663 174.67 57.7512 174.711 57.7512H178.24C178.282 57.7512 178.322 57.7663 178.351 57.7931C178.38 57.8199 178.397 57.8563 178.397 57.8942C178.397 57.9322 178.38 57.9686 178.351 57.9954C178.322 58.0222 178.282 58.0373 178.24 58.0373Z" fill="#367CFF"/>
<path d="M201.457 58.0373H181.633C181.592 58.0373 181.552 58.0222 181.522 57.9954C181.493 57.9686 181.476 57.9322 181.476 57.8942C181.476 57.8563 181.493 57.8199 181.522 57.7931C181.552 57.7663 181.592 57.7512 181.633 57.7512H201.457C201.499 57.7512 201.539 57.7663 201.568 57.7931C201.598 57.8199 201.614 57.8563 201.614 57.8942C201.614 57.9322 201.598 57.9686 201.568 57.9954C201.539 58.0222 201.499 58.0373 201.457 58.0373Z" fill="#292A2E"/>
<path d="M218.161 58.0373H205.23C205.189 58.0373 205.149 58.0222 205.12 57.9954C205.09 57.9686 205.074 57.9322 205.074 57.8942C205.074 57.8563 205.09 57.8199 205.12 57.7931C205.149 57.7663 205.189 57.7512 205.23 57.7512H218.161C218.202 57.7512 218.242 57.7663 218.271 57.7931C218.301 57.8199 218.317 57.8563 218.317 57.8942C218.317 57.9322 218.301 57.9686 218.271 57.9954C218.242 58.0222 218.202 58.0373 218.161 58.0373H218.161Z" fill="#0CBC8B"/>
<path d="M193.909 63.1977H174.711C174.67 63.1977 174.63 63.1826 174.6 63.1558C174.571 63.129 174.555 63.0926 174.555 63.0546C174.555 63.0167 174.571 62.9803 174.6 62.9535C174.63 62.9267 174.67 62.9116 174.711 62.9116H193.909C193.951 62.9116 193.99 62.9267 194.02 62.9535C194.049 62.9803 194.066 63.0167 194.066 63.0546C194.066 63.0926 194.049 63.129 194.02 63.1558C193.99 63.1826 193.951 63.1977 193.909 63.1977Z" fill="#0CBC8B"/>
<path d="M204.591 63.1977H197.302C197.26 63.1977 197.221 63.1826 197.191 63.1558C197.162 63.129 197.145 63.0926 197.145 63.0546C197.145 63.0167 197.162 62.9803 197.191 62.9535C197.221 62.9267 197.26 62.9116 197.302 62.9116H204.591C204.633 62.9116 204.673 62.9267 204.702 62.9535C204.731 62.9803 204.748 63.0167 204.748 63.0546C204.748 63.0926 204.731 63.129 204.702 63.1558C204.673 63.1826 204.633 63.1977 204.591 63.1977Z" fill="#292A2E"/>
<path d="M218.134 63.1977H207.711C207.669 63.1977 207.63 63.1826 207.6 63.1558C207.571 63.129 207.554 63.0926 207.554 63.0546C207.554 63.0167 207.571 62.9803 207.6 62.9535C207.63 62.9267 207.669 62.9116 207.711 62.9116H218.134C218.175 62.9116 218.215 62.9267 218.245 62.9535C218.274 62.9803 218.291 63.0167 218.291 63.0546C218.291 63.0926 218.274 63.129 218.245 63.1558C218.215 63.1826 218.175 63.1977 218.134 63.1977Z" fill="#367CFF"/>
<path d="M164.642 65.9587C164.601 65.9587 164.561 65.9437 164.531 65.9168C164.502 65.89 164.485 65.8536 164.485 65.8157V25.1501C164.485 25.1122 164.502 25.0758 164.531 25.049C164.561 25.0221 164.601 25.0071 164.642 25.0071C164.684 25.0071 164.724 25.0221 164.753 25.049C164.782 25.0758 164.799 25.1122 164.799 25.1501V65.8157C164.799 65.8536 164.782 65.89 164.753 65.9168C164.724 65.9437 164.684 65.9587 164.642 65.9587Z" fill="#292A2E"/>
<path d="M217.119 22.4318C218.508 22.4318 219.633 21.4044 219.633 20.137C219.633 18.8697 218.508 17.8423 217.119 17.8423C215.731 17.8423 214.605 18.8697 214.605 20.137C214.605 21.4044 215.731 22.4318 217.119 22.4318Z" fill="white"/>
<path d="M157.475 26.9369H150.69C150.649 26.9369 150.609 26.9219 150.579 26.895C150.55 26.8682 150.534 26.8318 150.534 26.7939C150.534 26.756 150.55 26.7196 150.579 26.6928C150.609 26.6659 150.649 26.6509 150.69 26.6509H157.475C157.517 26.6509 157.557 26.6659 157.586 26.6928C157.616 26.7196 157.632 26.756 157.632 26.7939C157.632 26.8318 157.616 26.8682 157.586 26.895C157.557 26.9219 157.517 26.9369 157.475 26.9369Z" fill="#292A2E"/>
<path d="M155.431 29.758H150.69C150.649 29.758 150.609 29.7429 150.579 29.7161C150.55 29.6893 150.534 29.6529 150.534 29.615C150.534 29.577 150.55 29.5406 150.579 29.5138C150.609 29.487 150.649 29.4719 150.69 29.4719H155.431C155.473 29.4719 155.513 29.487 155.542 29.5138C155.572 29.5406 155.588 29.577 155.588 29.615C155.588 29.6529 155.572 29.6893 155.542 29.7161C155.513 29.7429 155.473 29.758 155.431 29.758Z" fill="#292A2E"/>
<path d="M159.601 32.579H150.69C150.649 32.579 150.609 32.564 150.579 32.5371C150.55 32.5103 150.534 32.4739 150.534 32.436C150.534 32.3981 150.55 32.3617 150.579 32.3349C150.609 32.308 150.649 32.293 150.69 32.293H159.601C159.642 32.293 159.682 32.308 159.712 32.3349C159.741 32.3617 159.758 32.3981 159.758 32.436C159.758 32.4739 159.741 32.5103 159.712 32.5371C159.682 32.564 159.642 32.579 159.601 32.579Z" fill="#292A2E"/>
<path d="M161.264 35.4003H153.824C153.782 35.4003 153.743 35.3852 153.713 35.3584C153.684 35.3316 153.667 35.2952 153.667 35.2573C153.667 35.2194 153.684 35.183 153.713 35.1561C153.743 35.1293 153.782 35.1143 153.824 35.1143H161.264C161.305 35.1143 161.345 35.1293 161.374 35.1561C161.404 35.183 161.42 35.2194 161.42 35.2573C161.42 35.2952 161.404 35.3316 161.374 35.3584C161.345 35.3852 161.305 35.4003 161.264 35.4003Z" fill="#292A2E"/>
<path d="M157.666 38.2216H153.824C153.782 38.2216 153.743 38.2065 153.713 38.1797C153.684 38.1529 153.667 38.1165 153.667 38.0786C153.667 38.0406 153.684 38.0043 153.713 37.9774C153.743 37.9506 153.782 37.9355 153.824 37.9355H157.666C157.708 37.9355 157.747 37.9506 157.777 37.9774C157.806 38.0043 157.823 38.0406 157.823 38.0786C157.823 38.1165 157.806 38.1529 157.777 38.1797C157.747 38.2065 157.708 38.2216 157.666 38.2216Z" fill="#292A2E"/>
<path d="M160.609 41.0426H153.824C153.782 41.0426 153.743 41.0276 153.713 41.0008C153.684 40.9739 153.667 40.9376 153.667 40.8996C153.667 40.8617 153.684 40.8253 153.713 40.7985C153.743 40.7717 153.782 40.7566 153.824 40.7566H160.609C160.651 40.7566 160.691 40.7717 160.72 40.7985C160.749 40.8253 160.766 40.8617 160.766 40.8996C160.766 40.9376 160.749 40.9739 160.72 41.0008C160.691 41.0276 160.651 41.0426 160.609 41.0426Z" fill="#292A2E"/>
<path d="M155.922 43.8637H150.69C150.649 43.8637 150.609 43.8486 150.579 43.8218C150.55 43.795 150.534 43.7586 150.534 43.7207C150.534 43.6827 150.55 43.6463 150.579 43.6195C150.609 43.5927 150.649 43.5776 150.69 43.5776H155.922C155.964 43.5776 156.003 43.5927 156.033 43.6195C156.062 43.6463 156.079 43.6827 156.079 43.7207C156.079 43.7586 156.062 43.795 156.033 43.8218C156.003 43.8486 155.964 43.8637 155.922 43.8637Z" fill="#292A2E"/>
<path d="M154.124 46.6845H150.69C150.649 46.6845 150.609 46.6694 150.579 46.6426C150.55 46.6158 150.534 46.5794 150.534 46.5415C150.534 46.5035 150.55 46.4672 150.579 46.4403C150.609 46.4135 150.649 46.3984 150.69 46.3984H154.124C154.165 46.3984 154.205 46.4135 154.234 46.4403C154.264 46.4672 154.28 46.5035 154.28 46.5415C154.28 46.5794 154.264 46.6158 154.234 46.6426C154.205 46.6694 154.165 46.6845 154.124 46.6845Z" fill="#292A2E"/>
<path d="M167.253 26.3317V26.3832L169.211 27.0469C169.239 27.0573 169.263 27.0751 169.28 27.0981C169.297 27.121 169.305 27.148 169.305 27.1756V27.2242C169.306 27.2457 169.3 27.267 169.289 27.286C169.278 27.305 169.262 27.3211 169.243 27.3329C169.223 27.3457 169.2 27.3537 169.175 27.3562C169.151 27.3587 169.127 27.3556 169.104 27.3472L166.892 26.5577C166.865 26.5476 166.841 26.5303 166.824 26.5079C166.807 26.4854 166.798 26.459 166.798 26.4318V26.286C166.798 26.2587 166.807 26.2321 166.824 26.2096C166.84 26.1871 166.864 26.1698 166.892 26.1601L169.104 25.3677C169.123 25.3621 169.142 25.3592 169.161 25.3591C169.19 25.3597 169.218 25.3676 169.243 25.382C169.262 25.3944 169.278 25.4111 169.289 25.4306C169.3 25.45 169.306 25.4717 169.305 25.4936V25.5422C169.306 25.5695 169.297 25.5963 169.28 25.6189C169.263 25.6415 169.239 25.6587 169.211 25.6681L167.253 26.3317Z" fill="#367CFF"/>
<path d="M171.135 24.7841L169.963 28.0595C169.953 28.0868 169.935 28.1107 169.909 28.1276C169.884 28.1446 169.853 28.1538 169.822 28.1539C169.799 28.1542 169.777 28.1494 169.757 28.1399C169.736 28.1304 169.719 28.1166 169.706 28.0995C169.692 28.0826 169.682 28.063 169.678 28.0421C169.674 28.0213 169.675 27.9998 169.681 27.9794L170.853 24.7069C170.863 24.679 170.882 24.6547 170.908 24.6373C170.934 24.6198 170.965 24.6102 170.997 24.6096C171.02 24.6095 171.042 24.6144 171.062 24.6239C171.083 24.6334 171.1 24.6471 171.113 24.664C171.127 24.6809 171.136 24.7006 171.14 24.7216C171.144 24.7425 171.142 24.764 171.135 24.7841Z" fill="#367CFF"/>
<path d="M174.013 26.286V26.4319C174.014 26.4587 174.005 26.4851 173.989 26.5076C173.973 26.53 173.95 26.5475 173.922 26.5577L171.707 27.3472C171.685 27.3555 171.661 27.3586 171.637 27.3561C171.614 27.3536 171.591 27.3456 171.572 27.3329C171.552 27.3213 171.535 27.3052 171.524 27.2862C171.512 27.2673 171.506 27.2459 171.506 27.2242V27.1756C171.506 27.1476 171.515 27.1203 171.532 27.0972C171.55 27.0742 171.575 27.0566 171.603 27.0469L173.562 26.3832V26.3317L171.603 25.6681C171.574 25.6593 171.55 25.6424 171.532 25.6197C171.515 25.5971 171.505 25.5699 171.506 25.5422V25.4936C171.506 25.4715 171.512 25.4498 171.524 25.4303C171.535 25.4108 171.552 25.3943 171.572 25.382C171.596 25.3677 171.624 25.3597 171.653 25.3591C171.672 25.359 171.69 25.3619 171.707 25.3677L173.922 26.1601C173.95 26.17 173.973 26.1874 173.989 26.2099C174.006 26.2325 174.014 26.259 174.013 26.286Z" fill="#367CFF"/>
<path d="M129.707 0H19.3275V100.756H129.707V0Z" fill="#F4F4F4"/>
<path d="M19.3275 0H18.0624V100.756H19.3275V0Z" fill="#F4F4F4"/>
<path opacity="0.05" d="M19.3275 0H18.0624V100.756H19.3275V0Z" fill="#292A2E"/>
<path opacity="0.05" d="M46.0673 69.4294V43.0681H69.7235V58.3836H106.367V85.501H121.94V100.756H106.367H103.366H24.6373V69.4294H46.0673Z" fill="#292A2E"/>
<path opacity="0.34" d="M66.6868 45.9304H49.4602V48.7927H66.6868V45.9304Z" fill="#FFFFFA"/>
<path opacity="0.34" d="M66.6868 51.8616H49.4602V54.7239H66.6868V51.8616Z" fill="#FFFFFA"/>
<path opacity="0.34" d="M66.6868 57.7927H49.4602V60.655H66.6868V57.7927Z" fill="#FFFFFA"/>
<path opacity="0.34" d="M30.8669 72.2078H27.6918V75.0701H30.8669V72.2078Z" fill="#FFFFFA"/>
<path opacity="0.34" d="M30.8669 78.1389H27.6918V81.0012H30.8669V78.1389Z" fill="#FFFFFA"/>
<path opacity="0.34" d="M30.8669 84.0703H27.6918V86.9326H30.8669V84.0703Z" fill="#FFFFFA"/>
<path opacity="0.34" d="M36.7408 72.2078H33.5657V75.0701H36.7408V72.2078Z" fill="#FFFFFA"/>
<path opacity="0.34" d="M36.7408 78.1389H33.5657V81.0012H36.7408V78.1389Z" fill="#FFFFFA"/>
<path opacity="0.34" d="M36.7408 84.0703H33.5657V86.9326H36.7408V84.0703Z" fill="#FFFFFA"/>
<path opacity="0.34" d="M42.4563 72.2078H39.2811V75.0701H42.4563V72.2078Z" fill="#FFFFFA"/>
<path opacity="0.34" d="M42.4563 78.1389H39.2811V81.0012H42.4563V78.1389Z" fill="#FFFFFA"/>
<path opacity="0.34" d="M42.4563 84.0703H39.2811V86.9326H42.4563V84.0703Z" fill="#FFFFFA"/>
<path d="M19.3275 49.8131H41.5378V0H43.3745V49.8131H103.366V0H105.203V49.8131H129.707V51.4897H105.203V100.756H103.366V51.4897H43.3745V100.756H41.5378V51.4897H19.3275V49.8131Z" fill="white"/>
<path d="M134.104 100.635H14.9304V103.986H134.104V100.635Z" fill="#F4F4F4"/>
<path opacity="0.1" d="M134.104 100.635H14.9304V103.986H134.104V100.635Z" fill="#292A2E"/>
<path opacity="0.1" d="M14.9305 100.635H13.2097V103.986H14.9305V100.635Z" fill="#292A2E"/>
<path opacity="0.1" d="M14.9305 100.635H13.2097V103.986H14.9305V100.635Z" fill="#292A2E"/>
<path d="M18.0623 4.28955L129.707 4.28955V1.79828L18.0623 1.79828V4.28955Z" fill="white"/>
<path d="M18.0623 8.94312L129.707 8.94312V6.45184L18.0623 6.45184V8.94312Z" fill="white"/>
<path d="M18.0623 13.5964L129.707 13.5964V11.1052L18.0623 11.1052V13.5964Z" fill="white"/>
<path d="M18.0623 18.2498L129.707 18.2498V15.7585L18.0623 15.7585V18.2498Z" fill="white"/>
<path d="M18.0623 22.9028L129.707 22.9028V20.4116L18.0623 20.4116V22.9028Z" fill="white"/>
<path d="M29.9203 25.7129H31.5934L31.5934 7.43866e-05H29.9203L29.9203 25.7129Z" fill="white"/>
<path d="M30.615 29.4054C31.8845 29.4054 32.9136 28.466 32.9136 27.3072C32.9136 26.1484 31.8845 25.209 30.615 25.209C29.3455 25.209 28.3164 26.1484 28.3164 27.3072C28.3164 28.466 29.3455 29.4054 30.615 29.4054Z" fill="white"/>
<path d="M19.037 240.808L18.4215 240.699L28.0409 153.443L28.6564 153.551L19.037 240.808Z" fill="#494949"/>
<path d="M54.8553 240.808L54.2399 240.699L63.859 153.443L64.4744 153.551L54.8553 240.808Z" fill="#494949"/>
<path d="M134.029 240.808L134.645 240.699L125.025 153.443L124.41 153.551L134.029 240.808Z" fill="#494949"/>
<path d="M98.211 240.808L98.8265 240.699L89.2074 153.443L88.5919 153.551L98.211 240.808Z" fill="#494949"/>
<path d="M85.4544 115.041L84.8331 115.117L90.4526 153.536L91.0738 153.46L85.4544 115.041Z" fill="#494949"/>
<path d="M20.9538 115.041L20.3325 115.117L25.952 153.535L26.5732 153.46L20.9538 115.041Z" fill="#494949"/>
<path d="M91.0197 150.684H27.9307C26.2285 150.684 24.8486 151.943 24.8486 153.497V153.497C24.8486 155.051 26.2285 156.311 27.9307 156.311H91.0197C92.7219 156.311 94.1018 155.051 94.1018 153.497V153.497C94.1018 151.943 92.7219 150.684 91.0197 150.684Z" fill="#292A2E"/>
<path opacity="0.8" d="M91.0197 150.684H27.9307C26.2285 150.684 24.8486 151.943 24.8486 153.497V153.497C24.8486 155.051 26.2285 156.311 27.9307 156.311H91.0197C92.7219 156.311 94.1018 155.051 94.1018 153.497V153.497C94.1018 151.943 92.7219 150.684 91.0197 150.684Z" fill="white"/>
<path d="M91.0196 156.597H27.931C27.4851 156.597 27.0435 156.516 26.6316 156.361C26.2196 156.205 25.8453 155.977 25.53 155.689C25.2147 155.401 24.9646 155.059 24.794 154.683C24.6233 154.307 24.5355 153.904 24.5355 153.497C24.5355 153.09 24.6233 152.687 24.794 152.311C24.9646 151.935 25.2147 151.593 25.53 151.306C25.8453 151.018 26.2196 150.789 26.6316 150.634C27.0435 150.478 27.4851 150.398 27.931 150.398H91.0196C91.4655 150.398 91.9071 150.478 92.319 150.634C92.731 150.789 93.1053 151.018 93.4206 151.306C93.7359 151.593 93.986 151.935 94.1566 152.311C94.3273 152.687 94.4151 153.09 94.4151 153.497C94.4151 153.904 94.3273 154.307 94.1566 154.683C93.986 155.059 93.7359 155.401 93.4206 155.689C93.1053 155.977 92.731 156.205 92.319 156.361C91.9071 156.516 91.4655 156.597 91.0196 156.597ZM27.931 150.97C27.5674 150.97 27.2073 151.035 26.8714 151.162C26.5355 151.289 26.2303 151.475 25.9732 151.71C25.7161 151.945 25.5122 152.223 25.373 152.53C25.2339 152.837 25.1623 153.165 25.1623 153.497C25.1623 153.829 25.2339 154.158 25.373 154.464C25.5122 154.771 25.7161 155.05 25.9732 155.284C26.2303 155.519 26.5355 155.705 26.8714 155.832C27.2073 155.959 27.5674 156.024 27.931 156.024H91.0196C91.3832 156.024 91.7433 155.959 92.0792 155.832C92.4151 155.705 92.7203 155.519 92.9774 155.284C93.2345 155.05 93.4384 154.771 93.5776 154.464C93.7167 154.158 93.7883 153.829 93.7883 153.497C93.7883 153.165 93.7167 152.837 93.5776 152.53C93.4384 152.223 93.2345 151.945 92.9774 151.71C92.7203 151.475 92.4151 151.289 92.0792 151.162C91.7433 151.035 91.3832 150.97 91.0196 150.97H27.931Z" fill="#292A2E"/>
<path d="M125.646 150.684H62.5574C60.8552 150.684 59.4753 151.943 59.4753 153.497V153.497C59.4753 155.051 60.8552 156.311 62.5574 156.311H125.646C127.349 156.311 128.728 155.051 128.728 153.497V153.497C128.728 151.943 127.349 150.684 125.646 150.684Z" fill="white"/>
<path d="M125.646 156.597H62.5574C62.1115 156.597 61.67 156.516 61.258 156.361C60.8461 156.205 60.4718 155.977 60.1565 155.689C59.8412 155.401 59.5911 155.059 59.4205 154.683C59.2498 154.307 59.162 153.904 59.162 153.497C59.162 153.09 59.2498 152.687 59.4205 152.311C59.5911 151.935 59.8412 151.593 60.1565 151.306C60.4718 151.018 60.8461 150.789 61.258 150.634C61.67 150.478 62.1115 150.398 62.5574 150.398H125.646C126.092 150.398 126.534 150.478 126.946 150.634C127.358 150.789 127.732 151.018 128.047 151.306C128.363 151.593 128.613 151.935 128.783 152.311C128.954 152.687 129.042 153.09 129.042 153.497C129.042 153.904 128.954 154.307 128.783 154.683C128.613 155.059 128.363 155.401 128.047 155.689C127.732 155.977 127.358 156.205 126.946 156.361C126.534 156.516 126.092 156.597 125.646 156.597ZM62.5574 150.97C62.1938 150.97 61.8338 151.035 61.4979 151.162C61.162 151.289 60.8568 151.475 60.5997 151.71C60.3426 151.945 60.1386 152.223 59.9995 152.53C59.8604 152.837 59.7887 153.165 59.7887 153.497C59.7887 153.829 59.8604 154.158 59.9995 154.464C60.1386 154.771 60.3426 155.05 60.5997 155.284C60.8568 155.519 61.162 155.705 61.4979 155.832C61.8338 155.959 62.1938 156.024 62.5574 156.024H125.646C126.01 156.024 126.37 155.959 126.706 155.832C127.042 155.705 127.347 155.519 127.604 155.284C127.861 155.05 128.065 154.771 128.204 154.464C128.343 154.158 128.415 153.829 128.415 153.497C128.415 153.165 128.343 152.837 128.204 152.53C128.065 152.223 127.861 151.945 127.604 151.71C127.347 151.475 127.042 151.289 126.706 151.162C126.37 151.035 126.01 150.97 125.646 150.97H62.5574Z" fill="#292A2E"/>
<path d="M81.9981 115.079H20.8122C19.8118 115.078 18.8457 114.746 18.094 114.144C17.3423 113.541 16.8566 112.709 16.7274 111.804L12.6801 83.4329C12.6045 82.9026 12.6536 82.3636 12.8243 81.8519C12.9951 81.3403 13.2834 80.8678 13.67 80.4659C14.0567 80.0641 14.5329 79.7422 15.0667 79.5217C15.6005 79.3012 16.1797 79.1872 16.7656 79.1873H77.9508C78.9512 79.1872 79.9174 79.5195 80.669 80.1221C81.4207 80.7246 81.9065 81.5562 82.0357 82.4617L86.0826 110.833C86.1583 111.363 86.1092 111.902 85.9386 112.414C85.768 112.925 85.4797 113.398 85.0931 113.8C84.7066 114.201 84.2305 114.523 83.6968 114.744C83.1631 114.964 82.584 115.079 81.9981 115.079Z" fill="#292A2E"/>
<path opacity="0.8" d="M81.9981 115.079H20.8122C19.8118 115.078 18.8457 114.746 18.094 114.144C17.3423 113.541 16.8566 112.709 16.7274 111.804L12.6801 83.4329C12.6045 82.9026 12.6536 82.3636 12.8243 81.8519C12.9951 81.3403 13.2834 80.8678 13.67 80.4659C14.0567 80.0641 14.5329 79.7422 15.0667 79.5217C15.6005 79.3012 16.1797 79.1872 16.7656 79.1873H77.9508C78.9512 79.1872 79.9174 79.5195 80.669 80.1221C81.4207 80.7246 81.9065 81.5562 82.0357 82.4617L86.0826 110.833C86.1583 111.363 86.1092 111.902 85.9386 112.414C85.768 112.925 85.4797 113.398 85.0931 113.8C84.7066 114.201 84.2305 114.523 83.6968 114.744C83.1631 114.964 82.584 115.079 81.9981 115.079Z" fill="white"/>
<path d="M81.9981 115.365H20.8123C19.7364 115.362 18.698 115.004 17.8896 114.356C17.0812 113.708 16.5578 112.814 16.4165 111.841L12.3696 83.4698C12.2881 82.8991 12.3409 82.319 12.5246 81.7684C12.7082 81.2178 13.0184 80.7094 13.4345 80.2769C13.8506 79.8445 14.363 79.498 14.9374 79.2608C15.5118 79.0235 16.1351 78.9008 16.7656 78.9009H77.9509C79.0267 78.9031 80.0651 79.2614 80.8735 79.9095C81.6818 80.5575 82.2051 81.4513 82.3463 82.4248L86.3935 110.796C86.475 111.367 86.4221 111.947 86.2385 112.497C86.0548 113.048 85.7447 113.556 85.3287 113.988C84.9127 114.421 84.4004 114.767 83.8261 115.005C83.2517 115.242 82.6286 115.365 81.9981 115.365ZM16.7656 79.473C16.2243 79.473 15.6893 79.5784 15.1962 79.7822C14.703 79.986 14.2632 80.2834 13.906 80.6547C13.5488 81.0259 13.2825 81.4624 13.1248 81.9351C12.9672 82.4078 12.9217 82.9057 12.9916 83.3957L17.0389 111.767C17.1601 112.603 17.6095 113.37 18.3035 113.927C18.9975 114.483 19.8892 114.791 20.8129 114.792H81.9981C82.5393 114.792 83.0743 114.687 83.5673 114.483C84.0603 114.279 84.5 113.982 84.8571 113.61C85.2142 113.239 85.4804 112.803 85.638 112.33C85.7957 111.858 85.841 111.36 85.7712 110.87L81.7249 82.4989C81.6036 81.663 81.1542 80.8957 80.4602 80.3393C79.7661 79.7829 78.8746 79.4752 77.9509 79.4733L16.7656 79.473Z" fill="#292A2E"/>
<path d="M85.4578 115.079H24.2719C23.2716 115.078 22.3054 114.746 21.5538 114.144C20.8022 113.541 20.3165 112.709 20.1874 111.804L16.1388 83.4329C16.0632 82.9026 16.1124 82.3637 16.283 81.8521C16.4537 81.3405 16.742 80.868 17.1286 80.4662C17.5152 80.0643 17.9912 79.7424 18.525 79.5219C19.0587 79.3013 19.6378 79.1873 20.2237 79.1873H81.4108C82.4112 79.1873 83.3773 79.5195 84.1289 80.1221C84.8805 80.7246 85.3662 81.5563 85.4954 82.4617L89.5426 110.833C89.6183 111.363 89.5691 111.902 89.3984 112.414C89.2278 112.925 88.9395 113.398 88.5529 113.8C88.1663 114.201 87.6902 114.523 87.1565 114.744C86.6228 114.964 86.0436 115.079 85.4578 115.079Z" fill="white"/>
<path d="M85.4578 115.365H24.2719C23.1961 115.362 22.1577 115.004 21.3494 114.356C20.5411 113.708 20.0177 112.814 19.8765 111.841L15.8292 83.4698C15.7478 82.8991 15.8007 82.3191 15.9844 81.7686C16.1681 81.2181 16.4783 80.7096 16.8943 80.2772C17.3103 79.8448 17.8226 79.4984 18.3969 79.261C18.9713 79.0237 19.5945 78.9009 20.2249 78.9009H81.4105C82.4863 78.9031 83.5248 79.2615 84.3331 79.9095C85.1415 80.5576 85.6649 81.4513 85.8062 82.4248L89.8535 110.796C89.9348 111.367 89.8819 111.947 89.6982 112.497C89.5145 113.048 89.2043 113.556 88.7883 113.988C88.3723 114.421 87.86 114.767 87.2857 115.004C86.7113 115.242 86.0882 115.365 85.4578 115.365ZM20.2249 79.473C19.6837 79.4732 19.1488 79.5788 18.6558 79.7827C18.1629 79.9865 17.7232 80.284 17.3662 80.6553C17.0091 81.0265 16.7429 81.463 16.5853 81.9356C16.4277 82.4082 16.3823 82.9061 16.4522 83.396L20.4979 111.767C20.6193 112.603 21.0686 113.37 21.7626 113.926C22.4567 114.483 23.3482 114.791 24.2719 114.792H85.4578C85.999 114.792 86.5341 114.687 87.0272 114.483C87.5203 114.28 87.9602 113.982 88.3174 113.611C88.6745 113.24 88.9409 112.803 89.0985 112.33C89.2562 111.858 89.3016 111.36 89.2318 110.87L85.1845 82.4989C85.0632 81.663 84.6139 80.8956 83.9199 80.3392C83.2258 79.7828 82.3342 79.4751 81.4105 79.4733L20.2249 79.473Z" fill="#292A2E"/>
<path d="M133.019 121.556L132.396 121.614L145.607 240.999L146.23 240.942L133.019 121.556Z" fill="#494949"/>
<path d="M78.8641 35.6321C78.8641 35.6321 82.9298 32.8308 83.9373 26.3825C84.7173 21.3899 79.6719 24.6244 79.6719 24.6244C79.6719 24.6244 80.1953 21.0243 77.3216 21.3816C74.448 21.7389 72.8403 25.5206 72.8403 25.5206" fill="#0C0C0C"/>
<path d="M62.471 21.803C62.471 21.803 48.2139 23.1992 53.368 40.8329L54.6297 40.9102L57.1906 41.0669" fill="#0C0C0C"/>
<path d="M76.4761 59.2499C76.4134 59.2425 75.7177 69.7768 62.3096 68.8594C53.0274 68.2246 49.7178 59.235 49.505 59.235C50.5059 59.0411 51.7425 58.7461 52.2342 58.6452C53.3054 58.4182 54.2755 57.8988 55.0154 57.1563C55.7554 56.4137 56.2301 55.4831 56.3764 54.4882C56.6481 52.995 56.1884 45.3549 56.3291 43.844L70.5774 46.7469C70.3784 49.9382 68.9848 57.3359 73.8679 58.6452C74.6817 58.8617 75.5569 59.0608 76.4761 59.2499Z" fill="#E98862"/>
<path opacity="0.52" d="M70.7777 55.6217C70.5545 54.9651 70.4108 54.2882 70.349 53.603C70.1926 52.0396 70.2241 50.4652 70.443 48.908C67.547 48.5513 64.8187 47.4602 62.5681 45.7588C62.3036 46.6507 60.8486 50.548 61.2519 51.3955C62.0119 52.998 65.5897 55.6217 70.7777 55.6217Z" fill="#0C0C0C"/>
<path d="M67.837 53.5368C62.2156 53.0765 55.4877 49.8346 55.3909 42.8694L55.3031 36.5847C55.2063 29.6198 59.1351 23.927 66.3196 23.8434C73.5037 23.7602 78.9524 29.344 79.0493 36.3092L79.0881 39.0914C79.0831 40.047 79.0068 41.0011 78.8597 41.9471C78.4911 44.4501 77.9195 48.2556 76.059 50.8298C74.3016 53.2601 71.4279 53.8305 67.837 53.5368Z" fill="#E98862"/>
<path d="M70.4448 47.1708C71.6048 47.2188 72.7609 47.0172 73.8199 46.5824C73.8417 46.5738 73.8616 46.5614 73.8782 46.5459C73.8949 46.5304 73.908 46.512 73.9169 46.4919C73.9258 46.4717 73.9302 46.4501 73.93 46.4284C73.9297 46.4067 73.9248 46.3852 73.9154 46.3652C73.9061 46.3453 73.8925 46.3271 73.8755 46.3119C73.8585 46.2967 73.8384 46.2848 73.8163 46.2766C73.7942 46.2685 73.7706 46.2645 73.7468 46.2647C73.723 46.265 73.6995 46.2695 73.6776 46.278C71.3962 47.1662 69.3245 47.036 67.6868 45.9018C67.6538 45.8779 67.6193 45.8556 67.5837 45.8352C67.5425 45.8178 67.4957 45.8151 67.4524 45.8276C67.4092 45.8401 67.3727 45.867 67.3501 45.9029C67.3275 45.9388 67.3204 45.9811 67.3303 46.0215C67.3402 46.0619 67.3663 46.0975 67.4035 46.1212C67.4166 46.1287 67.4376 46.1438 67.4661 46.1647C68.3272 46.7632 69.3643 47.1135 70.4448 47.1708Z" fill="#0C0C0C"/>
<path d="M70.3906 48.7394C70.6002 48.7511 70.8105 48.7466 71.0192 48.7256C71.067 48.721 71.1108 48.6992 71.141 48.6651C71.1712 48.631 71.1854 48.5873 71.1803 48.5437C71.1752 48.5001 71.1514 48.4601 71.114 48.4325C71.0766 48.4049 71.0288 48.392 70.981 48.3967C69.7253 48.5185 69.1261 47.9933 69.1007 47.9707C69.0668 47.9397 69.0207 47.9222 68.9726 47.9221C68.9245 47.9221 68.8784 47.9394 68.8444 47.9704C68.8104 48.0014 68.7912 48.0435 68.7911 48.0874C68.7911 48.1313 68.8101 48.1734 68.8441 48.2044C69.2764 48.5405 69.8229 48.7295 70.3906 48.7394Z" fill="#0C0C0C"/>
<path d="M76.6766 40.4308C77.1654 40.4308 77.5616 40.0692 77.5616 39.623C77.5616 39.1769 77.1654 38.8152 76.6766 38.8152C76.1878 38.8152 75.7916 39.1769 75.7916 39.623C75.7916 40.0692 76.1878 40.4308 76.6766 40.4308Z" fill="#0C0C0C"/>
<path d="M68.0312 39.9355C68.52 39.9355 68.9162 39.5738 68.9162 39.1277C68.9162 38.6815 68.52 38.3198 68.0312 38.3198C67.5425 38.3198 67.1462 38.6815 67.1462 39.1277C67.1462 39.5738 67.5425 39.9355 68.0312 39.9355Z" fill="#0C0C0C"/>
<path d="M55.8665 44.9862C53.6832 45.0117 51.8838 42.9 51.8553 40.9071C51.8268 38.9141 53.582 37.7945 55.7653 37.7693L56.9088 39.0914L57.743 44.9645L55.8665 44.9862Z" fill="#E98862"/>
<path d="M58.0373 41.7837C58.0373 41.7837 58.7747 31.9282 62.0485 31.3195C64.229 30.9141 69.5166 33.7375 74.4141 32.8848C76.5569 32.5129 78.5911 32.9958 78.7979 33.9197C78.8797 34.2856 80.2147 29.0282 76.8593 25.0394C74.1878 21.8627 65.4452 20.9659 61.4678 22.0072C50.4548 24.8912 55.3147 38.2029 55.3147 38.2029L55.8058 41.6007L58.0373 41.7837Z" fill="#0C0C0C"/>
<path d="M71.7632 44.8442H71.7773C72.4808 44.8376 73.66 44.7553 73.6553 44.2747C73.6506 43.8765 72.4097 39.5905 72.2677 39.1031C72.2541 39.0626 72.2239 39.0285 72.1834 39.0079C72.1429 38.9874 72.0952 38.9819 72.0503 38.9928C72.0055 39.0036 71.9671 39.0299 71.943 39.0661C71.919 39.1023 71.9112 39.1456 71.9214 39.1869C72.4726 41.0851 73.2937 44.0075 73.2971 44.2787C73.2291 44.3931 72.5024 44.511 71.7738 44.5178C71.7279 44.5187 71.6841 44.5357 71.6514 44.5652C71.6188 44.5948 71.5998 44.6346 71.5985 44.6765C71.5971 44.7185 71.6134 44.7593 71.6441 44.7905C71.6747 44.8218 71.7174 44.8411 71.7632 44.8445V44.8442Z" fill="#0C0C0C"/>
<path d="M74.1649 35.2421C74.9043 35.0563 75.685 35.0563 76.4244 35.2421C76.7876 35.3312 77.1341 35.4697 77.4523 35.6529C77.7668 35.8322 78.0552 36.0471 78.3106 36.2925C78.3595 36.3358 78.388 36.3949 78.3898 36.4571C78.3916 36.5193 78.3667 36.5796 78.3204 36.6253C78.274 36.6709 78.21 36.6981 78.1419 36.7012C78.0738 36.7042 78.0071 36.6828 77.9562 36.6415L77.9402 36.6289C77.7035 36.4291 77.4403 36.2571 77.1567 36.1172C76.8784 35.9781 76.5787 35.8781 76.2677 35.8208C75.6554 35.7036 75.0201 35.7361 74.426 35.9149L74.4009 35.9229C74.3029 35.9546 74.1951 35.9494 74.1013 35.9085C74.0074 35.8676 73.9353 35.7943 73.9006 35.7048C73.8659 35.6153 73.8716 35.5169 73.9165 35.4313C73.9613 35.3457 74.0415 35.2798 74.1395 35.2481L74.1649 35.2421Z" fill="#0C0C0C"/>
<path d="M68.9291 35.6482C68.3665 35.3986 67.7416 35.2892 67.1177 35.331C66.8011 35.3498 66.4894 35.4123 66.1933 35.5163C65.8922 35.6207 65.6067 35.7591 65.3434 35.9283L65.3265 35.9386C65.27 35.9716 65.2016 35.9835 65.1357 35.9718C65.0698 35.9601 65.0114 35.9257 64.9726 35.8757C64.9338 35.8257 64.9176 35.7639 64.9273 35.7033C64.9371 35.6427 64.9721 35.5878 65.025 35.5501C65.3141 35.3379 65.6313 35.1599 65.9692 35.0203C66.3113 34.8777 66.6749 34.7826 67.0479 34.7383C67.8078 34.6437 68.5817 34.7383 69.2876 35.0123C69.3831 35.0502 69.4583 35.1213 69.4965 35.2098C69.5347 35.2983 69.5328 35.397 69.4913 35.4843C69.4497 35.5715 69.3719 35.6401 69.2749 35.675C69.1779 35.7099 69.0698 35.7082 68.9742 35.6702L68.9526 35.6608L68.9291 35.6482Z" fill="#0C0C0C"/>
<path d="M73.1126 28.4582C74.7286 28.15 75.6359 26.14 75.1389 23.9688C74.6419 21.7976 72.929 20.2873 71.313 20.5955C69.6969 20.9037 68.7897 22.9137 69.2867 25.0849C69.7836 27.2561 71.4965 28.7664 73.1126 28.4582Z" fill="#0C0C0C"/>
<path d="M163.245 225.911C163.245 225.911 164.925 233.861 173.08 234.304C181.234 234.747 179.466 240.677 179.466 240.677H148.303V226.465L163.245 225.911Z" fill="#367CFF"/>
<path d="M103.957 220.891C103.957 220.891 101.621 228.702 108.724 232.385C115.827 236.068 111.373 240.677 111.373 240.677L83.4093 228.119L90.282 215.366L103.957 220.891Z" fill="#367CFF"/>
<path d="M86.6381 218.684L110.219 150.777H67.4748C58.8882 150.777 55.3088 144.131 55.3088 136.293C55.3088 128.456 63.75 121.585 72.3358 121.585H130.025C135.262 121.585 141.134 124.509 144.009 128.505C146.883 132.501 146.106 138.694 144.023 143.08L106.261 226.799" fill="#262626"/>
<path opacity="0.8" d="M86.6381 218.684L110.219 150.777H67.4748C58.8882 150.777 55.3088 144.131 55.3088 136.293C55.3088 128.456 63.75 121.585 72.3358 121.585H130.025C135.262 121.585 141.134 124.509 144.009 128.505C146.883 132.501 146.106 138.694 144.023 143.08L106.261 226.799" fill="#0A0A0A"/>
<path d="M146.51 233.294L107.081 150.777L55.3081 150.774C43.177 149.906 37.6212 143.837 37.7979 136.002C37.9721 128.265 42.2635 120.624 50.7006 120.624H120.481C126.723 120.741 131.634 127.038 133.95 132.331L166.73 228.242" fill="#262626"/>
<path d="M34.2668 120.718C34.2668 120.718 31.9676 134.405 35.6121 142.015C40.1621 151.515 57.2185 150.774 57.2185 150.774L56.2574 120.624L34.2668 120.718Z" fill="#262626"/>
<path d="M135.434 120.449L98.8628 113.532C97.3389 113.244 95.9193 112.609 94.7353 111.687C93.5512 110.765 92.641 109.586 92.0889 108.258L77.7049 73.6581C77.2669 72.6197 77.058 71.5125 77.0901 70.4002C77.1223 69.2879 77.3949 68.1924 77.8922 67.1765C78.3896 66.1606 79.1019 65.2445 79.9883 64.4807C80.8747 63.7168 81.9177 63.1204 83.0573 62.7256C84.197 62.3308 85.4109 62.1454 86.6292 62.1801C87.8476 62.2148 89.0465 62.4689 90.1569 62.9278C91.2674 63.3867 92.2676 64.0414 93.1001 64.8541C93.9326 65.6669 94.581 66.6218 95.008 67.664L107.591 97.9289L139.19 103.906C139.19 103.906 136.068 120.569 135.434 120.449Z" fill="#367CFF"/>
<path d="M93.1355 82.4441C92.7134 86.9733 89.7197 115.229 89.3123 120.808H34.2909C33.9747 115.776 32.9484 94.4145 31.7494 84.5755C30.6053 75.1866 30.1901 69.8287 31.5081 66.9112C33.8328 61.765 39.65 59.9134 44.6609 59.2941C47.7204 58.9162 52.3223 58.645 52.3223 58.645C52.3223 58.645 52.7121 65.8402 62.0031 66.2407C74.6507 66.7842 73.8061 58.645 73.8688 58.645C75.9177 58.645 87.0708 60.0052 89.8595 61.6644C93.7986 64.008 94.9625 67.2016 95.0086 70.1357C95.0616 73.5143 93.6144 77.3077 93.1355 82.4441Z" fill="#367CFF"/>
<path d="M90.9732 105.533H90.96C90.9395 105.531 90.9195 105.526 90.9012 105.517C90.8829 105.509 90.8667 105.497 90.8534 105.482C90.8401 105.468 90.83 105.451 90.8237 105.434C90.8175 105.416 90.8151 105.397 90.8168 105.378L92.2452 89.7153C92.2464 89.6964 92.2517 89.6779 92.2609 89.661C92.2702 89.6441 92.2831 89.629 92.2989 89.6168C92.3147 89.6046 92.3331 89.5954 92.3529 89.5899C92.3727 89.5843 92.3935 89.5825 92.4141 89.5846C92.4346 89.5861 92.4546 89.5913 92.4729 89.5999C92.4912 89.6085 92.5075 89.6204 92.5208 89.6347C92.5341 89.6491 92.5442 89.6656 92.5504 89.6835C92.5567 89.7014 92.559 89.7203 92.5573 89.739L91.129 105.402C91.1256 105.437 91.1077 105.471 91.0789 105.495C91.0501 105.519 91.0124 105.532 90.9732 105.533Z" fill="#0C0C0C"/>
<path d="M117.178 114.933L129.25 81.0569C129.462 80.4616 129.875 79.9429 130.43 79.575C130.985 79.2071 131.653 79.009 132.339 79.009H184.658C185.171 79.009 185.676 79.1198 186.133 79.3323C186.59 79.5448 186.985 79.853 187.286 80.2317C187.587 80.6104 187.786 81.0488 187.866 81.511C187.946 81.9733 187.905 82.4463 187.747 82.8914L172.541 116.769C172.328 117.364 171.915 117.883 171.36 118.25C170.806 118.618 170.137 118.816 169.452 118.816H120.266C119.754 118.817 119.248 118.706 118.791 118.493C118.334 118.281 117.939 117.972 117.637 117.593C117.336 117.215 117.137 116.776 117.057 116.314C116.977 115.851 117.019 115.378 117.178 114.933Z" fill="#292A2E"/>
<path d="M117.178 114.933L129.25 81.0569C129.462 80.4616 129.875 79.9429 130.43 79.575C130.985 79.2071 131.653 79.009 132.339 79.009H184.658C185.171 79.009 185.676 79.1198 186.133 79.3323C186.59 79.5448 186.985 79.853 187.286 80.2317C187.587 80.6104 187.786 81.0488 187.866 81.511C187.946 81.9733 187.905 82.4463 187.747 82.8914L172.541 116.769C172.328 117.364 171.915 117.883 171.36 118.25C170.806 118.618 170.137 118.816 169.452 118.816H120.266C119.754 118.817 119.248 118.706 118.791 118.493C118.334 118.281 117.939 117.972 117.637 117.593C117.336 117.215 117.137 116.776 117.057 116.314C116.977 115.851 117.019 115.378 117.178 114.933Z" fill="#292A2E"/>
<path d="M127.026 116.068H94.101C93.2806 116.068 92.6156 116.675 92.6156 117.424V117.459C92.6156 118.208 93.2806 118.815 94.101 118.815H127.026C127.846 118.815 128.511 118.208 128.511 117.459V117.424C128.511 116.675 127.846 116.068 127.026 116.068Z" fill="#292A2E"/>
<path d="M127.026 116.068H94.101C93.2806 116.068 92.6156 116.675 92.6156 117.424V117.459C92.6156 118.208 93.2806 118.815 94.101 118.815H127.026C127.846 118.815 128.511 118.208 128.511 117.459V117.424C128.511 116.675 127.846 116.068 127.026 116.068Z" fill="#292A2E"/>
<path d="M150.895 105.274C153.744 105.274 156.054 103.165 156.054 100.565C156.054 97.9642 153.744 95.856 150.895 95.856C148.046 95.856 145.737 97.9642 145.737 100.565C145.737 103.165 148.046 105.274 150.895 105.274Z" fill="white"/>
<path d="M114.425 106.997L106.208 104.368L107.388 104.294C107.768 104.263 108.121 104.101 108.376 103.842C108.631 103.582 108.768 103.244 108.76 102.896C108.75 102.716 108.699 102.54 108.611 102.379C108.523 102.218 108.4 102.075 108.25 101.959C108.099 101.842 107.925 101.755 107.736 101.702C107.548 101.65 107.349 101.633 107.153 101.652L92.6156 103.062L92.9917 107.327C93.109 108.651 93.657 109.914 94.5654 110.952C95.4738 111.991 96.7012 112.758 98.0903 113.155L104.386 114.945C104.711 115.044 105.064 115.037 105.384 114.926C105.704 114.815 105.973 114.606 106.144 114.335C106.292 114.087 106.35 113.803 106.309 113.523C106.268 113.243 106.13 112.982 105.916 112.779C105.93 112.77 105.941 112.758 105.95 112.745C105.959 112.732 105.965 112.717 105.967 112.701C105.97 112.686 105.969 112.67 105.964 112.655C105.959 112.64 105.952 112.626 105.941 112.614L107.101 112.946C107.462 113.057 107.857 113.038 108.204 112.894C108.552 112.749 108.826 112.49 108.972 112.168C109.091 111.876 109.094 111.555 108.979 111.261C108.864 110.967 108.64 110.72 108.345 110.563C108.359 110.556 108.371 110.547 108.381 110.537L108.858 110.673C109.183 110.772 109.536 110.765 109.856 110.654C110.176 110.543 110.445 110.334 110.616 110.063C110.796 109.762 110.842 109.41 110.744 109.079C110.645 108.748 110.411 108.465 110.089 108.289C110.092 108.28 110.093 108.271 110.094 108.262L113.516 109.357C113.686 109.413 113.866 109.438 114.047 109.43C114.228 109.422 114.405 109.381 114.568 109.311C114.732 109.24 114.878 109.14 114.999 109.017C115.12 108.894 115.213 108.751 115.273 108.595C115.333 108.439 115.358 108.274 115.348 108.109C115.337 107.944 115.291 107.783 115.212 107.635C115.133 107.486 115.022 107.353 114.886 107.244C114.75 107.135 114.592 107.052 114.421 106.999L114.425 106.997Z" fill="#E98862"/>
<path opacity="0.2" d="M109.964 108.383C109.948 108.383 109.932 108.381 109.917 108.376L106.607 107.277C106.573 107.266 106.546 107.242 106.53 107.212C106.515 107.182 106.514 107.148 106.526 107.117C106.539 107.086 106.564 107.061 106.597 107.047C106.63 107.033 106.667 107.032 106.701 107.043L110.011 108.142C110.042 108.152 110.067 108.171 110.083 108.196C110.099 108.222 110.105 108.252 110.099 108.28C110.094 108.309 110.077 108.335 110.053 108.354C110.028 108.373 109.997 108.383 109.965 108.383H109.964Z" fill="#0A0A0A"/>
<path opacity="0.2" d="M108.29 110.58C108.274 110.58 108.259 110.577 108.244 110.573L105.635 109.728C105.618 109.722 105.602 109.714 105.589 109.703C105.575 109.692 105.564 109.679 105.556 109.664C105.548 109.649 105.543 109.633 105.542 109.617C105.541 109.6 105.543 109.583 105.549 109.568C105.555 109.552 105.565 109.538 105.577 109.526C105.589 109.513 105.604 109.503 105.621 109.496C105.637 109.489 105.655 109.486 105.673 109.485C105.691 109.484 105.709 109.487 105.726 109.493L108.336 110.338C108.366 110.348 108.391 110.367 108.408 110.392C108.424 110.418 108.43 110.447 108.424 110.476C108.419 110.505 108.402 110.531 108.378 110.55C108.353 110.569 108.322 110.58 108.29 110.58Z" fill="#0A0A0A"/>
<path opacity="0.2" d="M105.833 112.809C105.817 112.809 105.8 112.806 105.785 112.801L104.563 112.375C104.529 112.364 104.501 112.34 104.487 112.31C104.472 112.28 104.471 112.245 104.484 112.215C104.497 112.184 104.523 112.159 104.556 112.145C104.589 112.132 104.626 112.131 104.66 112.143L105.882 112.568C105.912 112.578 105.937 112.598 105.953 112.623C105.968 112.649 105.974 112.678 105.968 112.707C105.962 112.736 105.946 112.762 105.921 112.78C105.896 112.799 105.866 112.809 105.834 112.809H105.833Z" fill="#0A0A0A"/>
<path d="M99.0502 100.538L64.5788 100.517L51.5379 71.479L32.0841 78.9451L48.354 113.409L48.5129 113.752C49.3089 115.427 50.6497 116.839 52.3538 117.795C54.0578 118.751 56.0427 119.207 58.0395 119.099L99.5707 116.859L99.0502 100.538Z" fill="#367CFF"/>
<path d="M57.4689 119.257C55.5364 119.254 53.6467 118.737 52.0308 117.77C50.4149 116.802 49.1428 115.426 48.37 113.809L48.2108 113.466L34.3461 84.1007L34.6337 83.9863L48.6574 113.696C49.4443 115.342 50.7643 116.728 52.44 117.668C54.1157 118.609 56.0666 119.058 58.0305 118.956L99.4097 116.725L98.897 100.682L64.4732 100.661L54.4451 78.3332L54.7353 78.2251L64.6828 100.375L99.2013 100.396L99.7318 116.994L99.5798 117.002L58.0499 119.241C57.8559 119.252 57.6613 119.257 57.4689 119.257Z" fill="#0C0C0C"/>
<path d="M19.1271 121.558L5.90686 240.943L6.53044 241.001L19.7507 121.616L19.1271 121.558Z" fill="#494949"/>
<path d="M73.7481 121.558L60.5278 240.943L61.1514 241.001L74.3717 121.616L73.7481 121.558Z" fill="#494949"/>
<path d="M187.64 121.557L187.017 121.614L200.228 241L200.851 240.942L187.64 121.557Z" fill="#494949"/>
<path d="M199.553 119.241H8.07916C6.661 119.241 5.51135 120.291 5.51135 121.585C5.51135 122.88 6.661 123.929 8.07916 123.929H199.553C200.971 123.929 202.121 122.88 202.121 121.585C202.121 120.291 200.971 119.241 199.553 119.241Z" fill="#292A2E"/>
<path opacity="0.8" d="M199.553 119.241H8.07916C6.661 119.241 5.51135 120.291 5.51135 121.585C5.51135 122.88 6.661 123.929 8.07916 123.929H199.553C200.971 123.929 202.121 122.88 202.121 121.585C202.121 120.291 200.971 119.241 199.553 119.241Z" fill="white"/>
<path d="M199.554 124.215H8.08042C7.69955 124.219 7.32167 124.153 6.96865 124.023C6.61562 123.892 6.29445 123.699 6.02372 123.455C5.75299 123.21 5.53807 122.919 5.39139 122.598C5.24471 122.277 5.16919 121.933 5.16919 121.585C5.16919 121.238 5.24471 120.893 5.39139 120.573C5.53807 120.252 5.75299 119.961 6.02372 119.716C6.29445 119.471 6.61562 119.278 6.96865 119.148C7.32167 119.017 7.69955 118.952 8.08042 118.955H199.554C199.934 118.952 200.312 119.017 200.665 119.148C201.018 119.278 201.34 119.471 201.61 119.716C201.881 119.961 202.096 120.252 202.243 120.573C202.389 120.893 202.465 121.238 202.465 121.585C202.465 121.933 202.389 122.277 202.243 122.598C202.096 122.919 201.881 123.21 201.61 123.455C201.34 123.699 201.018 123.892 200.665 124.023C200.312 124.153 199.934 124.219 199.554 124.215ZM8.08042 119.528C7.78215 119.524 7.48615 119.575 7.20956 119.677C6.93298 119.779 6.68131 119.93 6.46914 120.122C6.25698 120.313 6.08854 120.541 5.97357 120.792C5.85861 121.043 5.79941 121.313 5.79941 121.585C5.79941 121.858 5.85861 122.127 5.97357 122.378C6.08854 122.63 6.25698 122.858 6.46914 123.049C6.68131 123.24 6.93298 123.391 7.20956 123.493C7.48615 123.595 7.78215 123.646 8.08042 123.643H199.554C199.852 123.646 200.148 123.595 200.424 123.493C200.701 123.391 200.953 123.24 201.165 123.049C201.377 122.858 201.545 122.63 201.66 122.378C201.775 122.127 201.835 121.858 201.835 121.585C201.835 121.313 201.775 121.043 201.66 120.792C201.545 120.541 201.377 120.313 201.165 120.122C200.953 119.93 200.701 119.779 200.424 119.677C200.148 119.575 199.852 119.524 199.554 119.528H8.08042Z" fill="#292A2E"/>
<path d="M199.553 119.241H64.7881C63.37 119.241 62.2203 120.291 62.2203 121.585C62.2203 122.88 63.37 123.929 64.7881 123.929H199.553C200.971 123.929 202.121 122.88 202.121 121.585C202.121 120.291 200.971 119.241 199.553 119.241Z" fill="white"/>
<path d="M199.554 124.215H64.7881C64.0293 124.208 63.3041 123.928 62.7703 123.435C62.2365 122.943 61.937 122.278 61.937 121.585C61.937 120.893 62.2365 120.228 62.7703 119.735C63.3041 119.243 64.0293 118.963 64.7881 118.955H199.554C199.934 118.952 200.312 119.017 200.665 119.148C201.018 119.278 201.34 119.471 201.61 119.716C201.881 119.961 202.096 120.252 202.243 120.573C202.389 120.893 202.465 121.238 202.465 121.585C202.465 121.933 202.389 122.277 202.243 122.598C202.096 122.919 201.881 123.21 201.61 123.455C201.34 123.699 201.018 123.892 200.665 124.023C200.312 124.153 199.934 124.219 199.554 124.215ZM64.7881 119.528C64.1949 119.534 63.6283 119.754 63.2112 120.139C62.7942 120.524 62.5603 121.044 62.5603 121.585C62.5603 122.127 62.7942 122.647 63.2112 123.032C63.6283 123.417 64.1949 123.637 64.7881 123.643H199.554C199.852 123.646 200.148 123.595 200.424 123.493C200.701 123.391 200.953 123.24 201.165 123.049C201.377 122.858 201.546 122.63 201.66 122.378C201.775 122.127 201.835 121.858 201.835 121.585C201.835 121.313 201.775 121.043 201.66 120.792C201.546 120.541 201.377 120.313 201.165 120.122C200.953 119.93 200.701 119.779 200.424 119.677C200.148 119.575 199.852 119.524 199.554 119.528H64.7881Z" fill="#292A2E"/>
<path d="M204.718 202.94C204.677 202.94 204.636 202.933 204.598 202.919C204.56 202.904 204.526 202.883 204.497 202.856C204.055 202.454 203.335 195.059 201.397 173.043C200.603 164.034 199.854 155.525 199.307 150.354C199.268 149.985 199.111 149.942 199.06 149.928C198.311 149.722 196.035 151.36 194.765 152.795C194.712 152.854 194.637 152.891 194.554 152.899C194.471 152.907 194.388 152.885 194.324 152.837C194.259 152.79 194.218 152.72 194.209 152.645C194.2 152.569 194.225 152.494 194.277 152.435C195.117 151.486 197.856 149 199.24 149.38C199.519 149.456 199.867 149.678 199.931 150.299C200.479 155.475 201.228 163.986 202.021 172.997C203.199 186.376 204.534 201.533 204.973 202.487C205.006 202.53 205.026 202.581 205.03 202.633C205.035 202.685 205.023 202.738 204.997 202.785C204.97 202.832 204.931 202.871 204.881 202.898C204.832 202.926 204.776 202.94 204.718 202.94Z" fill="#494949"/>
<path d="M198.502 159.843C203.702 156.038 205.426 150.116 202.352 146.615C199.278 143.115 192.57 143.361 187.37 147.166C182.17 150.971 180.446 156.893 183.52 160.394C186.595 163.895 193.302 163.648 198.502 159.843Z" fill="#0CBC8B"/>
<path opacity="0.2" d="M198.502 159.843C203.702 156.038 205.426 150.116 202.352 146.615C199.278 143.115 192.57 143.361 187.37 147.166C182.17 150.971 180.446 156.893 183.52 160.394C186.595 163.895 193.302 163.648 198.502 159.843Z" fill="white"/>
<path d="M184.978 161.284C184.949 161.284 184.92 161.277 184.894 161.262C184.869 161.248 184.849 161.227 184.837 161.202C184.824 161.178 184.819 161.15 184.823 161.123C184.827 161.096 184.839 161.071 184.858 161.05L199.678 144.737C199.704 144.707 199.742 144.689 199.784 144.685C199.825 144.682 199.866 144.694 199.898 144.718C199.93 144.742 199.951 144.777 199.954 144.815C199.958 144.852 199.946 144.89 199.919 144.919L185.099 161.233C185.084 161.249 185.066 161.262 185.045 161.271C185.024 161.28 185.001 161.284 184.978 161.284Z" fill="white"/>
<path d="M207.95 199.443C207.9 199.443 207.851 199.432 207.807 199.412C207.762 199.391 207.724 199.36 207.695 199.323C207.666 199.286 207.647 199.243 207.64 199.198C207.633 199.152 207.638 199.106 207.654 199.063L213.222 184.45C213.385 184.02 213.665 183.635 214.034 183.33C214.403 183.025 214.85 182.809 215.334 182.702C215.818 182.596 216.324 182.602 216.805 182.72C217.286 182.838 217.727 183.064 218.088 183.378L221.031 185.944C221.091 185.996 221.126 186.068 221.128 186.144C221.13 186.22 221.098 186.294 221.041 186.348C220.984 186.403 220.905 186.435 220.822 186.437C220.738 186.439 220.658 186.41 220.598 186.358L217.655 183.791C217.37 183.543 217.022 183.365 216.642 183.272C216.263 183.179 215.863 183.174 215.481 183.258C215.099 183.342 214.746 183.513 214.454 183.754C214.163 183.995 213.943 184.299 213.813 184.638L208.247 199.251C208.225 199.308 208.185 199.356 208.132 199.391C208.079 199.425 208.015 199.444 207.95 199.443Z" fill="#494949"/>
<path d="M229.253 194.035C233.107 191.25 232.878 185.126 228.741 180.356C224.605 175.586 218.128 173.976 214.274 176.761C210.42 179.545 210.649 185.669 214.786 190.439C218.922 195.209 225.399 196.819 229.253 194.035Z" fill="#0CBC8B"/>
<path d="M202.191 202.008C202.12 202.008 202.052 201.987 201.997 201.947C201.941 201.907 201.902 201.851 201.886 201.789L192.542 166.133C192.478 165.89 192.342 165.668 192.149 165.491C191.956 165.314 191.713 165.189 191.447 165.13C191.181 165.071 190.902 165.08 190.642 165.156C190.381 165.232 190.148 165.372 189.969 165.561L187.089 168.599C187.062 168.628 187.029 168.652 186.993 168.669C186.956 168.686 186.915 168.696 186.874 168.699C186.833 168.702 186.791 168.697 186.752 168.686C186.713 168.674 186.676 168.655 186.645 168.63C186.614 168.606 186.588 168.575 186.57 168.542C186.551 168.508 186.54 168.471 186.537 168.433C186.535 168.395 186.54 168.358 186.553 168.322C186.567 168.286 186.588 168.253 186.615 168.225L189.495 165.187C189.749 164.918 190.08 164.719 190.451 164.611C190.822 164.503 191.218 164.49 191.596 164.575C191.974 164.659 192.32 164.837 192.594 165.088C192.869 165.34 193.062 165.656 193.152 166.002L202.494 201.657C202.513 201.731 202.499 201.808 202.456 201.872C202.412 201.937 202.343 201.983 202.262 202C202.239 202.006 202.215 202.008 202.191 202.008Z" fill="#494949"/>
<path d="M198.743 176.52C199.879 170.525 196.874 165.046 192.031 164.282C187.187 163.517 182.341 167.757 181.205 173.752C180.07 179.746 183.075 185.225 187.918 185.99C192.761 186.754 197.608 182.515 198.743 176.52Z" fill="#0CBC8B"/>
<path d="M204.718 202.94C204.706 202.94 204.693 202.94 204.68 202.938C204.639 202.934 204.6 202.922 204.564 202.903C204.528 202.885 204.496 202.86 204.471 202.831C204.446 202.801 204.427 202.767 204.416 202.731C204.405 202.695 204.402 202.657 204.407 202.619L210.372 158.407C210.437 157.926 210.653 157.471 210.994 157.099C211.335 156.727 211.787 156.452 212.295 156.309C212.803 156.165 213.345 156.159 213.857 156.29C214.369 156.421 214.828 156.684 215.18 157.048L221.999 164.097C222.054 164.154 222.082 164.228 222.076 164.304C222.071 164.38 222.033 164.451 221.971 164.501C221.909 164.551 221.827 164.577 221.744 164.572C221.661 164.567 221.584 164.533 221.529 164.476L214.71 157.426C214.438 157.145 214.083 156.942 213.687 156.84C213.292 156.739 212.873 156.744 212.48 156.855C212.088 156.966 211.739 157.178 211.475 157.466C211.212 157.754 211.045 158.105 210.994 158.477L205.029 202.689C205.02 202.758 204.983 202.822 204.926 202.869C204.869 202.915 204.795 202.94 204.718 202.94Z" fill="#494949"/>
<path d="M228.992 168.014C231.371 164.089 228.572 158.519 222.74 155.574C216.908 152.63 210.252 153.425 207.873 157.351C205.494 161.277 208.293 166.847 214.125 169.791C219.957 172.736 226.613 171.94 228.992 168.014Z" fill="#0CBC8B"/>
<path opacity="0.2" d="M229.253 194.035C233.107 191.25 232.878 185.126 228.741 180.356C224.605 175.586 218.128 173.976 214.274 176.761C210.42 179.545 210.649 185.669 214.786 190.439C218.922 195.209 225.399 196.819 229.253 194.035Z" fill="white"/>
<path opacity="0.5" d="M198.743 176.52C199.879 170.525 196.874 165.046 192.031 164.282C187.187 163.517 182.341 167.757 181.205 173.752C180.07 179.746 183.075 185.225 187.918 185.99C192.761 186.754 197.608 182.515 198.743 176.52Z" fill="white"/>
<path opacity="0.5" d="M228.992 168.014C231.371 164.089 228.572 158.519 222.74 155.574C216.908 152.63 210.252 153.425 207.873 157.351C205.494 161.277 208.293 166.847 214.125 169.791C219.957 172.736 226.613 171.94 228.992 168.014Z" fill="white"/>
<path d="M212.348 240.455H197.088L194.559 195.886H214.877L212.348 240.455Z" fill="#292A2E"/>
<path opacity="0.3" d="M212.348 240.455H197.088L194.559 195.886H214.877L212.348 240.455Z" fill="white"/>
<path d="M229.253 194.176C229.23 194.176 229.206 194.171 229.185 194.161C229.164 194.152 229.145 194.138 229.13 194.121L214.151 176.847C214.125 176.818 214.113 176.78 214.118 176.742C214.123 176.704 214.144 176.67 214.176 176.646C214.209 176.623 214.251 176.612 214.292 176.616C214.333 176.621 214.371 176.64 214.397 176.67L229.376 193.944C229.394 193.965 229.406 193.99 229.409 194.017C229.412 194.043 229.407 194.071 229.394 194.095C229.382 194.119 229.362 194.139 229.337 194.154C229.312 194.168 229.283 194.176 229.253 194.176Z" fill="white"/>
<path d="M227.996 169.398C227.962 169.398 227.93 169.388 227.903 169.37L208.735 156.594C208.702 156.571 208.679 156.538 208.673 156.5C208.666 156.463 208.677 156.425 208.701 156.394C208.726 156.363 208.762 156.343 208.804 156.337C208.845 156.331 208.887 156.34 208.92 156.363L228.088 169.139C228.114 169.157 228.134 169.182 228.144 169.211C228.153 169.239 228.153 169.27 228.143 169.299C228.132 169.327 228.112 169.352 228.086 169.369C228.059 169.387 228.027 169.396 227.994 169.396L227.996 169.398Z" fill="white"/>
<path d="M187.139 185.804C187.125 185.804 187.112 185.802 187.099 185.798C187.059 185.789 187.024 185.765 187.004 185.732C186.983 185.699 186.977 185.66 186.988 185.624L193.09 164.755C193.101 164.719 193.127 164.689 193.163 164.671C193.199 164.653 193.241 164.648 193.28 164.657C193.319 164.667 193.353 164.69 193.374 164.722C193.395 164.754 193.402 164.792 193.392 164.828L187.29 185.697C187.282 185.728 187.262 185.755 187.235 185.774C187.207 185.793 187.174 185.804 187.139 185.804Z" fill="white"/>
<path d="M219.715 240.856H0.219364C0.161185 240.856 0.105389 240.835 0.0642501 240.797C0.0231115 240.76 0 240.709 0 240.656C0 240.603 0.0231115 240.552 0.0642501 240.514C0.105389 240.477 0.161185 240.456 0.219364 240.456H219.715C219.773 240.456 219.829 240.477 219.87 240.514C219.911 240.552 219.934 240.603 219.934 240.656C219.934 240.709 219.911 240.76 219.87 240.797C219.829 240.835 219.773 240.856 219.715 240.856H219.715Z" fill="#292A2E"/>
<g opacity="0.65">
<path d="M219.715 240.856H0.219364C0.161185 240.856 0.105389 240.835 0.0642501 240.797C0.0231115 240.76 0 240.709 0 240.656C0 240.603 0.0231115 240.552 0.0642501 240.514C0.105389 240.477 0.161185 240.456 0.219364 240.456H219.715C219.773 240.456 219.829 240.477 219.87 240.514C219.911 240.552 219.934 240.603 219.934 240.656C219.934 240.709 219.911 240.76 219.87 240.797C219.829 240.835 219.773 240.856 219.715 240.856H219.715Z" fill="#292A2E"/>
</g>
</g>
<defs>
<clipPath id="clip0_3_293">
<rect width="232" height="241" fill="white"/>
</clipPath>
</defs>
</svg>
